#!OML:ASF I:\Actors\actors\Patient Classification 2\Patient 1\Session 1\actor1.ASF
:FULLY-SPECIFIED
:DEGREES
503
root -1.18624 17.8428 5.98678 -8.73972 8.66773 -1.59827
lowerback 6.50023 1.74835 9.61465
upperback 0.281751 3.21976 4.9642
thorax -3.12738 1.49784 -0.49384
lowerneck 4.05299 -23.4225 -16.6035
upperneck -1.54859 -32.6648 20.8479
head 4.99673 -16.2737 5.94443
rclavicle -1.43125e-014 6.67916e-014
rhumerus 20.3691 11.8757 -49.3046
rradius 46.2574
rwrist 3.43886
rhand -5.62584 -32.1963
rfingers 7.12502
rthumb 20.192 -61.1669
lclavicle -1.43125e-014 6.67916e-014
lhumerus -32.4813 -53.0744 80.7451
lradius 116.102
lwrist 36.0634
lhand -12.8782 -14.6101
lfingers 7.12502
lthumb 13.2106 14.9514
rfemur 30.3867 -6.486 16.6052
rtibia -18.8856
rfoot -14.6416 -21.9847
rtoes -1.2069
lfemur 27.991 -7.89553 -14.5403
ltibia -24.6306
lfoot 5.09995 8.0901
ltoes -17.2435
504
root -1.18582 17.8309 6.00071 -8.91983 8.26887 -1.70867
lowerback 6.11444 1.60516 9.51498
upperback 0.0335581 2.99352 4.97205
thorax -3.19362 1.37926 -0.403429
lowerneck 4.00458 -23.3973 -16.7177
upperneck -1.09526 -32.7065 20.7168
head 5.14303 -16.2732 5.88248
rclavicle -2.76311e-014 -7.4743e-014
rhumerus 19.6959 13.9847 -47.999
rradius 49.0157
rwrist 0.643165
rhand -5.41694 -32.5003
rfingers 7.12502
rthumb 20.3928 -61.4495
lclavicle -2.76311e-014 -7.4743e-014
lhumerus -32.6072 -52.901 80.7479
lradius 115.56
lwrist 36.1437
lhand -12.7225 -14.506
lfingers 7.12502
lthumb 13.3607 15.0456
rfemur 30.5894 -6.28367 16.7251
rtibia -18.9265
rfoot -14.6285 -21.7752
rtoes -1.18797
lfemur 28.3342 -7.77664 -14.426
ltibia -24.6334
lfoot 4.87011 8.24189
ltoes -16.9172
505
root -1.18218 17.8213 6.01364 -9.06857 7.88149 -1.82571
lowerback 5.71328 1.43309 9.42914
upperback -0.210365 2.72737 4.96881
thorax -3.2471 1.24142 -0.329638
lowerneck 3.88039 -23.3546 -16.9022
upperneck -0.525988 -32.7378 20.5772
head 5.34471 -16.2593 5.80954
rclavicle 3.97569e-016 -1.20861e-013
rhumerus 19.0836 16.2792 -46.431
rradius 51.9402
rwrist -2.39859
rhand -5.45291 -32.777
rfingers 7.12502
rthumb 20.3582 -61.73
lclavicle 3.97569e-016 -1.20861e-013
lhumerus -32.983 -52.6825 80.8551
lradius 115.158
lwrist 36.0341
lhand -12.52 -14.3911
lfingers 7.12502
lthumb 13.5559 15.1476
rfemur 30.7633 -6.19644 16.8079
rtibia -18.9953
rfoot -14.4554 -21.5518
rtoes -1.3437
lfemur 28.6488 -7.68812 -14.3289
ltibia -24.6468
lfoot 4.67716 8.41555
ltoes -16.695
506
root -1.17595 17.811 6.02453 -9.21131 7.47903 -1.84027
lowerback 5.35351 1.26306 9.26052
upperback -0.431349 2.46033 4.91322
thorax -3.29934 1.10475 -0.267396
lowerneck 3.71428 -23.3166 -16.9444
upperneck 0.0325459 -32.758 20.4053
head 5.52004 -16.2393 5.71778
rclavicle -2.3059e-014 -1.59028e-014
rhumerus 18.5183 18.4864 -44.8721
rradius 54.9018
rwrist -5.07802
rhand -5.59752 -32.9634
rfingers 7.12502
rthumb 20.2192 -61.9311
lclavicle -2.3059e-014 -1.59028e-014
lhumerus -33.3413 -52.5054 80.874
lradius 114.795
lwrist 35.9489
lhand -12.5786 -14.3597
lfingers 7.12502
lthumb 13.4994 15.1828
rfemur 30.9637 -6.11872 16.7589
rtibia -19.1047
rfoot -14.2165 -21.3185
rtoes -1.63688
lfemur 28.9767 -7.65381 -14.3805
ltibia -24.6624
lfoot 4.48059 8.696
ltoes -16.8108
507
root -1.16902 17.7983 6.03282 -9.34752 6.99223 -1.84114
lowerback 5.02692 1.11631 8.98924
upperback -0.615565 2.223 4.9466
thorax -3.33547 0.987354 -0.0601462
lowerneck 3.61288 -23.2749 -16.9367
upperneck 0.423352 -32.7421 20.1904
head 5.61177 -16.2135 5.63715
rclavicle -3.77691e-014 -2.70347e-014
rhumerus 17.9967 20.2937 -43.5443
rradius 57.7925
rwrist -7.27819
rhand -5.58282 -33.0464
rfingers 7.12502
rthumb 20.2333 -62.0126
lclavicle -3.77691e-014 -2.70347e-014
lhumerus -33.619 -52.2857 80.9551
lradius 114.379
lwrist 36.0489
lhand -12.6741 -14.3236
lfingers 7.12502
lthumb 13.4073 15.2249
rfemur 31.1689 -5.96305 16.707
rtibia -19.2786
rfoot -13.99 -21.0856
rtoes -2.07889
lfemur 29.2972 -7.63173 -14.4473
ltibia -24.6586
lfoot 4.21914 9.09204
ltoes -16.813
